# xmcd
#
# Track frame offsets:
#	150
#	10200
#	19807
#	39252
#	54532
#	68012
#	81387
#	91012
#	109170
#	121395
#	134787
#	146875
#
# Disc length: 2127 seconds
# Revision: 0
# Processed by: cddbd v1.5.2PL0 Copyright (c) Steve Scherf et al.
# Submitted via: dBpowerAMP V12.0
#
DISCID=a4084d0c
DTITLE=Various Artist - Always Drink Upstream from the Herd
DYEAR=1995
DGENRE=Country
TTITLE0=Riders in the Sky - Riding the Winds of the West
TTITLE1=Riders in the Sky - The Texas Polka
TTITLE2=Riders in the Sky - Take Me Back to My Boots and Saddle
TTITLE3=Riders in the Sky - After You've Gone
TTITLE4=Riders in the Sky - The Trail Tip Song
TTITLE5=Riders in the Sky - Desert Serenade
TTITLE6=Riders in the Sky - Rawhide
TTITLE7=Riders in the Sky - The Whispering Wind
TTITLE8=Riders in the Sky with Chris O'Donnell - The First Cowboy Song
TTITLE9=Riders in the Sky - Idaho
TTITLE10=Riders in the Sky - The Running Gun
TTITLE11=Riders in the Sky - Cattle Call
EXTD=
EXTT0=
EXTT1=
EXTT2=
EXTT3=
EXTT4=
EXTT5=
EXTT6=
EXTT7=
EXTT8=
EXTT9=
EXTT10=
EXTT11=
PLAYORDER=
